<svg width="300" height="381" viewBox="0 0 300 381" fill="none" xmlns="http://www.w3.org/2000/svg">
<mask id="path-1-inside-1_301_2" fill="white">
<path fill-rule="evenodd" clip-rule="evenodd" d="M250 233.071C268.734 210.545 280 181.588 280 150C280 78.203 221.797 20 150 20C78.203 20 20 78.203 20 150C20 181.588 31.2664 210.545 50 233.071V261.805C19.3125 234.339 0 194.425 0 150C0 67.1573 67.1573 0 150 0C232.843 0 300 67.1573 300 150C300 194.425 280.687 234.339 250 261.805V233.071Z"/>
</mask>
<path d="M250 233.071L242.311 226.677L240 229.457V233.071H250ZM50 233.071H60V229.457L57.6886 226.677L50 233.071ZM50 261.805L43.3309 269.257L60 284.176V261.805H50ZM250 261.805H240V284.176L256.669 269.257L250 261.805ZM257.689 239.466C277.86 215.21 290 184.009 290 150H270C270 179.167 259.607 205.88 242.311 226.677L257.689 239.466ZM290 150C290 72.6801 227.32 10 150 10V30C216.274 30 270 83.7258 270 150H290ZM150 10C72.6801 10 10 72.6801 10 150H30C30 83.7258 83.7258 30 150 30V10ZM10 150C10 184.009 22.1396 215.21 42.3114 239.466L57.6886 226.677C40.3932 205.88 30 179.167 30 150H10ZM60 261.805V233.071H40V261.805H60ZM-10 150C-10 197.388 10.6135 239.974 43.3309 269.257L56.6691 254.354C28.0115 228.705 10 191.462 10 150H-10ZM150 -10C61.6344 -10 -10 61.6344 -10 150H10C10 72.6801 72.6801 10 150 10V-10ZM310 150C310 61.6344 238.366 -10 150 -10V10C227.32 10 290 72.6801 290 150H310ZM256.669 269.257C289.386 239.974 310 197.388 310 150H290C290 191.462 271.988 228.705 243.331 254.354L256.669 269.257ZM240 233.071V261.805H260V233.071H240Z" fill="#5C5955" mask="url(#path-1-inside-1_301_2)"/>
<mask id="path-3-inside-2_301_2" fill="white">
<path fill-rule="evenodd" clip-rule="evenodd" d="M212.603 231H87.6025V306H63L149.603 381L236.205 306H212.603V231Z"/>
</mask>
<path fill-rule="evenodd" clip-rule="evenodd" d="M212.603 231H87.6025V306H63L149.603 381L236.205 306H212.603V231Z" fill="#5C5955"/>
<path d="M87.6025 231V226H82.6025V231H87.6025ZM212.603 231H217.603V226H212.603V231ZM87.6025 306V311H92.6025V306H87.6025ZM63 306V301H49.5889L59.7267 309.78L63 306ZM149.603 381L146.329 384.78L149.603 387.614L152.876 384.78L149.603 381ZM236.205 306L239.478 309.78L249.616 301H236.205V306ZM212.603 306H207.603V311H212.603V306ZM87.6025 236H212.603V226H87.6025V236ZM92.6025 306V231H82.6025V306H92.6025ZM63 311H87.6025V301H63V311ZM152.876 377.22L66.2733 302.22L59.7267 309.78L146.329 384.78L152.876 377.22ZM232.932 302.22L146.329 377.22L152.876 384.78L239.478 309.78L232.932 302.22ZM212.603 311H236.205V301H212.603V311ZM207.603 231V306H217.603V231H207.603Z" fill="#5C5955" mask="url(#path-3-inside-2_301_2)"/>
<path d="M111.751 180.792C97.3292 180.792 86.3212 176.781 78.7265 168.76C71.2172 160.739 67.4625 149.347 67.4625 134.584C67.4625 127.245 68.6145 120.717 70.9185 115C73.2225 109.197 76.3798 104.333 80.3905 100.408C84.4012 96.3973 89.1798 93.368 94.7265 91.32C100.273 89.272 106.289 88.248 112.775 88.248C116.529 88.248 119.943 88.5467 123.015 89.144C126.087 89.656 128.775 90.296 131.079 91.064C133.383 91.7467 135.303 92.472 136.839 93.24C138.375 94.008 139.484 94.6053 140.167 95.032L134.407 111.16C131.676 109.709 128.476 108.472 124.807 107.448C121.223 106.424 117.127 105.912 112.519 105.912C109.447 105.912 106.417 106.424 103.431 107.448C100.529 108.472 97.9265 110.136 95.6225 112.44C93.4038 114.659 91.6118 117.56 90.2465 121.144C88.8812 124.728 88.1985 129.08 88.1985 134.2C88.1985 138.296 88.6252 142.136 89.4785 145.72C90.4172 149.219 91.8678 152.248 93.8305 154.808C95.8785 157.368 98.5238 159.416 101.767 160.952C105.009 162.403 108.935 163.128 113.543 163.128C116.444 163.128 119.047 162.957 121.351 162.616C123.655 162.275 125.703 161.891 127.495 161.464C129.287 160.952 130.865 160.397 132.231 159.8C133.596 159.203 134.833 158.648 135.943 158.136L141.447 174.136C138.631 175.843 134.663 177.379 129.543 178.744C124.423 180.109 118.492 180.792 111.751 180.792ZM183.171 179C179.672 171.576 176.216 163.853 172.803 155.832C169.389 147.811 166.147 139.875 163.075 132.024C160.003 124.173 157.144 116.664 154.499 109.496C151.939 102.328 149.72 95.928 147.843 90.296H169.859C171.565 95.416 173.4 100.963 175.363 106.936C177.411 112.824 179.459 118.712 181.507 124.6C183.64 130.488 185.688 136.12 187.651 141.496C189.613 146.872 191.448 151.523 193.155 155.448C194.776 151.523 196.568 146.872 198.531 141.496C200.579 136.12 202.627 130.488 204.675 124.6C206.808 118.712 208.856 112.824 210.819 106.936C212.867 100.963 214.744 95.416 216.451 90.296H237.699C235.736 95.928 233.475 102.328 230.915 109.496C228.355 116.664 225.539 124.173 222.467 132.024C219.395 139.875 216.152 147.811 212.739 155.832C209.325 163.853 205.869 171.576 202.371 179H183.171Z" fill="#5C5955"/>
</svg>
