<svg width="300" height="381" viewBox="0 0 300 381" fill="none" xmlns="http://www.w3.org/2000/svg">
<mask id="path-1-inside-1_301_2" fill="white">
<path fill-rule="evenodd" clip-rule="evenodd" d="M250 247.98C274.744 222.729 290 188.146 290 150C290 72.6801 227.32 10 150 10C72.6801 10 10 72.6801 10 150C10 188.146 25.2563 222.729 50 247.98V261.805C19.3125 234.339 0 194.425 0 150C0 67.1573 67.1573 0 150 0C232.843 0 300 67.1573 300 150C300 194.425 280.687 234.339 250 261.805V247.98Z"/>
</mask>
<path d="M250 247.98L242.858 240.981L240 243.897V247.98H250ZM50 247.98H60V243.897L57.1424 240.981L50 247.98ZM50 261.805L43.3309 269.257L60 284.176V261.805H50ZM250 261.805H240V284.176L256.669 269.257L250 261.805ZM257.142 254.979C283.644 227.935 300 190.867 300 150H280C280 185.425 265.844 217.523 242.858 240.981L257.142 254.979ZM300 150C300 67.1573 232.843 0 150 0V20C221.797 20 280 78.203 280 150H300ZM150 0C67.1573 0 0 67.1573 0 150H20C20 78.203 78.203 20 150 20V0ZM0 150C0 190.867 16.3565 227.935 42.8576 254.979L57.1424 240.981C34.1561 217.523 20 185.425 20 150H0ZM60 261.805V247.98H40V261.805H60ZM-10 150C-10 197.388 10.6135 239.974 43.3309 269.257L56.6691 254.354C28.0115 228.705 10 191.462 10 150H-10ZM150 -10C61.6344 -10 -10 61.6344 -10 150H10C10 72.6801 72.6801 10 150 10V-10ZM310 150C310 61.6344 238.366 -10 150 -10V10C227.32 10 290 72.6801 290 150H310ZM256.669 269.257C289.386 239.974 310 197.388 310 150H290C290 191.462 271.988 228.705 243.331 254.354L256.669 269.257ZM240 247.98V261.805H260V247.98H240Z" fill="#5C5955" mask="url(#path-1-inside-1_301_2)"/>
<mask id="path-3-inside-2_301_2" fill="white">
<path fill-rule="evenodd" clip-rule="evenodd" d="M212.603 231H87.6025V306H63L149.603 381L236.205 306H212.603V231Z"/>
</mask>
<path fill-rule="evenodd" clip-rule="evenodd" d="M212.603 231H87.6025V306H63L149.603 381L236.205 306H212.603V231Z" fill="#8A8885"/>
<path d="M87.6025 231V226H82.6025V231H87.6025ZM212.603 231H217.603V226H212.603V231ZM87.6025 306V311H92.6025V306H87.6025ZM63 306V301H49.5889L59.7267 309.78L63 306ZM149.603 381L146.329 384.78L149.603 387.614L152.876 384.78L149.603 381ZM236.205 306L239.478 309.78L249.616 301H236.205V306ZM212.603 306H207.603V311H212.603V306ZM87.6025 236H212.603V226H87.6025V236ZM92.6025 306V231H82.6025V306H92.6025ZM63 311H87.6025V301H63V311ZM152.876 377.22L66.2733 302.22L59.7267 309.78L146.329 384.78L152.876 377.22ZM232.932 302.22L146.329 377.22L152.876 384.78L239.478 309.78L232.932 302.22ZM212.603 311H236.205V301H212.603V311ZM207.603 231V306H217.603V231H207.603Z" fill="#8A8885" mask="url(#path-3-inside-2_301_2)"/>
<path d="M125.302 165.44C120.63 165.44 116.374 164.672 112.534 163.136C108.694 161.6 105.398 159.36 102.646 156.416C99.8935 153.472 97.7495 149.856 96.2135 145.568C94.7415 141.216 94.0055 136.256 94.0055 130.688C94.0055 125.12 94.8375 120.192 96.5015 115.904C98.2295 111.552 100.534 107.904 103.414 104.96C106.294 102.016 109.654 99.776 113.494 98.24C117.334 96.704 121.43 95.936 125.782 95.936C128.534 95.936 130.998 96.128 133.174 96.512C135.414 96.896 137.334 97.344 138.934 97.856C140.598 98.368 141.942 98.88 142.966 99.392C143.99 99.904 144.694 100.288 145.078 100.544L142.39 108.224C141.814 107.84 140.982 107.424 139.894 106.976C138.806 106.528 137.558 106.08 136.15 105.632C134.806 105.184 133.302 104.832 131.638 104.576C130.038 104.256 128.406 104.096 126.742 104.096C123.222 104.096 120.054 104.704 117.238 105.92C114.422 107.136 112.022 108.896 110.038 111.2C108.054 113.504 106.518 116.32 105.43 119.648C104.406 122.912 103.894 126.592 103.894 130.688C103.894 134.656 104.342 138.272 105.238 141.536C106.198 144.8 107.606 147.616 109.462 149.984C111.318 152.288 113.622 154.08 116.374 155.36C119.19 156.64 122.454 157.28 126.166 157.28C130.454 157.28 134.006 156.832 136.822 155.936C139.638 155.04 141.75 154.24 143.158 153.536L145.558 161.216C145.11 161.536 144.31 161.952 143.158 162.464C142.006 162.912 140.566 163.36 138.838 163.808C137.11 164.256 135.094 164.64 132.79 164.96C130.486 165.28 127.99 165.44 125.302 165.44ZM211.579 97.472C209.147 104.512 206.811 111.04 204.571 117.056C202.395 123.008 200.251 128.672 198.139 134.048C196.027 139.424 193.915 144.576 191.803 149.504C189.755 154.368 187.643 159.2 185.467 164H176.731C174.555 159.2 172.411 154.368 170.299 149.504C168.251 144.576 166.139 139.424 163.963 134.048C161.851 128.672 159.675 123.008 157.435 117.056C155.195 111.04 152.891 104.512 150.523 97.472H160.795C164.251 107.584 167.643 117.312 170.971 126.656C174.299 136 177.723 144.768 181.243 152.96C184.763 144.832 188.187 136.096 191.515 126.752C194.843 117.344 198.203 107.584 201.595 97.472H211.579Z" fill="#5C5955"/>
</svg>
